<?xml version="1.0" standalone="no"?>
<!DOCTYPE svg PUBLIC "-//W3C//DTD SVG 20010904//EN"
 "http://www.w3.org/TR/2001/REC-SVG-20010904/DTD/svg10.dtd">
<svg version="1.0" xmlns="http://www.w3.org/2000/svg"
 width="828.000000pt" height="828.000000pt" viewBox="0 0 828.000000 828.000000"
 preserveAspectRatio="xMidYMid meet">
<metadata>
Created by potrace 1.14, written by Peter Selinger 2001-2017
</metadata>
<g transform="translate(0.000000,828.000000) scale(0.100000,-0.100000)"
fill="#000000" stroke="none">
<path d="M5162 7970 c-195 -41 -327 -139 -466 -347 -60 -90 -124 -162 -207
-235 -34 -30 -96 -134 -165 -276 -51 -107 -61 -120 -175 -235 -109 -111 -218
-251 -205 -264 2 -3 22 1 43 8 21 8 61 15 88 16 44 2 85 5 203 16 18 2 35 0
37 -3 2 -4 28 -3 57 0 30 5 58 3 65 -2 7 -5 17 -7 23 -3 16 10 49 15 125 21
117 9 129 10 145 16 29 12 75 19 146 24 49 2 84 10 108 25 19 11 43 19 53 18
10 -2 29 3 43 10 18 10 25 11 28 2 3 -8 8 -8 15 -3 13 10 205 72 224 72 6 0
16 7 23 15 7 8 21 15 31 15 11 0 47 12 82 26 34 14 75 28 90 30 16 2 41 12 55
23 15 10 41 22 59 25 17 4 44 18 60 32 20 18 35 23 56 20 15 -3 27 -1 27 4 0
6 13 10 29 10 16 0 41 4 54 9 20 8 34 4 69 -18 24 -15 51 -39 60 -53 9 -14 23
-32 30 -39 31 -34 93 -199 86 -232 -3 -18 31 -114 46 -126 7 -6 21 -31 32 -56
10 -25 27 -48 38 -51 67 -22 295 16 421 69 52 22 163 88 206 122 62 50 76 112
37 157 -26 29 -68 44 -148 53 -175 20 -184 22 -243 52 -93 46 -236 213 -312
363 -46 91 -132 198 -280 345 -168 168 -203 198 -303 251 -188 99 -330 127
-490 94z"/>
<path d="M5766 5865 c4 -8 12 -15 20 -15 8 0 14 7 14 15 0 8 -9 15 -20 15 -13
0 -18 -5 -14 -15z"/>
<path d="M5405 5780 c3 -5 -1 -10 -9 -10 -9 0 -16 -5 -16 -11 0 -6 7 -8 16 -5
9 3 18 6 20 6 2 0 4 7 4 15 0 8 -5 15 -11 15 -5 0 -7 -4 -4 -10z"/>
<path d="M5288 5769 c-26 -14 -22 -29 7 -29 14 0 29 8 35 20 9 17 8 20 -7 20
-10 0 -26 -5 -35 -11z"/>
<path d="M5860 5770 c-12 -8 -11 -10 8 -10 12 0 22 5 22 10 0 13 -11 13 -30 0z"/>
<path d="M5205 5761 c-5 -9 -74 -26 -89 -22 -23 6 -57 -12 -93 -47 -45 -45
-73 -79 -57 -69 7 4 17 0 24 -8 21 -25 53 -17 100 26 25 22 59 46 75 53 17 7
40 25 53 38 19 21 21 26 8 31 -9 3 -18 2 -21 -2z"/>
<path d="M5306 5718 c-10 -14 -28 -22 -55 -24 -48 -3 -88 -30 -98 -64 -3 -14
-17 -45 -31 -69 -21 -38 -22 -45 -9 -58 13 -13 18 -13 43 0 16 9 36 24 45 34
9 10 28 28 42 40 15 13 27 29 27 37 0 7 7 19 15 26 8 7 15 21 15 31 0 11 7 19
15 19 8 0 19 9 24 19 15 28 -14 36 -33 9z"/>
<path d="M4683 5676 c-33 -10 -33 -11 -33 -73 0 -35 2 -63 5 -63 2 0 18 12 34
28 16 15 48 42 70 60 54 43 57 73 6 53 -11 -5 -27 -5 -35 -2 -8 4 -30 2 -47
-3z"/>
<path d="M5720 5660 c-12 -7 -12 -12 -3 -21 15 -15 26 -7 21 15 -2 11 -7 13
-18 6z"/>
<path d="M4584 5639 c-3 -6 -1 -16 5 -22 8 -8 11 -5 11 11 0 24 -5 28 -16 11z"/>
<path d="M4897 5583 c-16 -15 -5 -24 25 -21 41 4 50 28 11 28 -17 0 -33 -3
-36 -7z"/>
<path d="M4979 5573 c-1 -19 -4 -35 -8 -43 -2 -3 -4 -15 -5 -28 -2 -18 1 -21
18 -16 26 8 36 22 36 54 0 31 -39 62 -41 33z"/>
<path d="M4317 5554 c-4 -4 -7 -14 -7 -23 0 -11 3 -12 11 -4 6 6 10 16 7 23
-2 6 -7 8 -11 4z"/>
<path d="M4057 5523 c-9 -8 -9 -68 0 -76 10 -11 43 51 37 68 -6 16 -26 20 -37
8z"/>
<path d="M4360 5519 c0 -5 5 -7 10 -4 6 3 10 8 10 11 0 2 -4 4 -10 4 -5 0 -10
-5 -10 -11z"/>
<path d="M4157 5503 c-13 -12 -7 -69 9 -102 21 -42 26 -36 12 14 -5 22 -10 52
-9 68 0 28 -1 31 -12 20z"/>
<path d="M5035 5420 c3 -5 10 -10 16 -10 5 0 9 5 9 10 0 6 -7 10 -16 10 -8 0
-12 -4 -9 -10z"/>
<path d="M5061 5386 c-10 -11 -10 -20 0 -37 l11 -22 19 24 c13 17 15 27 7 36
-14 17 -23 16 -37 -1z"/>
<path d="M4994 5343 c-4 -15 -15 -36 -25 -46 -22 -21 -25 -37 -6 -37 24 0 57
40 57 70 0 39 -18 48 -26 13z"/>
<path d="M4070 5285 c0 -3 9 -19 21 -37 12 -18 18 -25 15 -15 -3 10 -6 25 -6
32 0 7 -7 15 -15 19 -8 3 -15 3 -15 1z"/>
<path d="M5232 5265 c0 -16 2 -22 5 -12 2 9 2 23 0 30 -3 6 -5 -1 -5 -18z"/>
<path d="M5170 5216 c23 -22 54 -24 58 -3 3 14 -4 17 -34 17 -33 0 -36 -2 -24
-14z"/>
<path d="M5550 5166 c0 -8 4 -17 8 -20 13 -8 35 11 28 23 -10 16 -36 14 -36
-3z"/>
<path d="M4830 5139 c0 -11 5 -17 10 -14 6 3 10 13 10 21 0 8 -4 14 -10 14 -5
0 -10 -9 -10 -21z"/>
<path d="M5370 5152 c0 -14 11 -21 26 -15 21 8 17 23 -6 23 -11 0 -20 -4 -20
-8z"/>
<path d="M3849 5068 c4 -12 13 -24 19 -26 18 -6 14 35 -4 42 -23 9 -24 8 -15
-16z"/>
<path d="M4790 5080 c0 -5 5 -10 11 -10 5 0 7 5 4 10 -3 6 -8 10 -11 10 -2 0
-4 -4 -4 -10z"/>
<path d="M4722 4995 c-7 -14 -11 -40 -11 -58 l2 -32 4 30 c3 16 11 38 19 49
16 23 18 36 6 36 -5 0 -14 -11 -20 -25z"/>
<path d="M3850 4949 c0 -5 11 -34 24 -63 26 -56 56 -81 56 -46 0 11 -5 20 -11
20 -5 0 -8 4 -5 9 3 5 -8 27 -24 50 -31 42 -40 49 -40 30z"/>
<path d="M3700 4677 c0 -25 6 -40 21 -51 18 -12 23 -28 27 -85 5 -78 26 -103
37 -45 3 19 3 38 0 43 -3 5 2 17 11 25 15 15 8 21 -18 17 -5 0 -8 6 -8 14 0
19 -38 90 -56 106 -12 10 -14 6 -14 -24z"/>
<path d="M1380 3599 c0 -17 65 -26 74 -10 3 5 -12 11 -34 13 -22 2 -40 1 -40
-3z"/>
<path d="M3677 3523 c-3 -5 -8 -39 -12 -78 -4 -38 -11 -75 -17 -82 -6 -7 -5
-19 4 -33 10 -16 10 -22 1 -28 -8 -5 -2 -17 21 -37 25 -23 41 -29 66 -27 29 3
31 6 25 30 -4 15 -11 52 -16 81 -5 31 -15 59 -24 63 -8 5 -15 16 -15 23 0 8
-5 15 -11 15 -8 0 -10 14 -6 40 4 35 -4 53 -16 33z"/>
<path d="M3790 3175 c-12 -31 1 -55 30 -55 16 0 16 4 6 35 -17 48 -24 52 -36
20z"/>
<path d="M3830 3087 c-8 -12 -13 -33 -12 -47 2 -23 1 -23 -7 -5 -5 11 -12 28
-15 38 -4 12 -17 17 -46 19 -22 0 -45 1 -52 2 -7 1 -18 -9 -24 -22 -6 -12 -21
-33 -33 -46 -35 -37 -27 -54 27 -62 26 -4 58 -8 72 -8 19 -1 25 -6 25 -26 0
-20 5 -25 25 -25 18 0 24 5 22 18 -2 12 4 17 22 17 25 0 25 -2 19 -45 -4 -29
-1 -50 7 -59 15 -19 5 -36 -21 -36 -10 0 -19 -6 -19 -14 0 -15 58 -30 103 -27
17 2 29 -3 33 -13 4 -10 18 -16 40 -16 23 0 37 -6 44 -20 6 -11 15 -20 19 -20
15 0 0 42 -31 89 -17 25 -34 55 -39 68 -5 13 -13 23 -19 23 -5 0 -10 6 -10 13
0 8 -9 24 -20 36 -10 13 -27 44 -36 70 -10 25 -23 53 -31 62 -7 8 -13 23 -13
32 0 25 -15 28 -30 4z"/>
<path d="M3560 2961 c0 -5 -9 -11 -20 -14 -11 -3 -20 -10 -20 -16 0 -16 16
-14 34 5 15 15 21 34 11 34 -3 0 -5 -4 -5 -9z"/>
<path d="M4065 2670 c-3 -5 6 -27 20 -47 14 -21 25 -50 25 -64 0 -18 10 -36
30 -52 17 -14 30 -30 30 -36 0 -5 5 -13 10 -16 7 -4 8 8 4 37 -6 42 -48 118
-65 118 -5 0 -9 8 -9 18 0 21 -37 55 -45 42z"/>
<path d="M4018 2578 c16 -16 15 -28 -3 -28 -27 0 -16 -17 23 -33 20 -9 52 -26
70 -38 41 -26 54 -17 21 15 -13 13 -35 40 -49 59 -17 25 -33 37 -49 37 -20 0
-22 -3 -13 -12z"/>
<path d="M5785 2459 c-22 -4 -80 -16 -130 -26 l-90 -18 -3 -113 -3 -112 56 6
55 7 2 -359 3 -359 40 0 40 0 6 75 c4 41 8 134 9 205 2 110 12 203 20 185 1
-3 7 -108 13 -235 l12 -230 35 0 35 0 3 493 2 492 -32 -1 c-18 -1 -51 -5 -73
-10z m15 -254 c6 -15 17 -25 30 -25 24 0 25 -8 4 -31 -12 -14 -13 -22 -4 -38
12 -24 8 -26 -19 -10 -13 9 -27 9 -48 2 -28 -10 -29 -10 -25 17 2 16 -3 33
-13 43 -15 16 -15 17 10 17 18 0 28 7 35 25 5 14 12 25 15 25 3 0 10 -11 15
-25z"/>
<path d="M6395 2460 c-65 -9 -193 -57 -215 -80 -3 -3 -20 -18 -39 -33 -105
-86 -181 -250 -181 -387 0 -142 82 -311 192 -394 230 -174 544 -135 710 89 70
95 93 160 108 309 6 55 14 102 19 105 4 4 11 15 15 27 3 11 24 39 46 61 46 49
129 83 200 83 51 0 160 -35 160 -51 0 -5 6 -9 14 -9 24 0 94 -116 102 -166 16
-108 -19 -202 -99 -267 -89 -73 -194 -88 -292 -42 -54 26 -121 85 -131 117 -9
29 -21 21 -33 -24 -7 -24 -14 -48 -17 -55 -6 -14 53 -83 72 -83 8 0 14 -4 14
-10 0 -15 90 -51 150 -60 99 -14 216 15 284 70 35 29 76 75 82 93 3 9 9 17 14
17 16 0 50 129 50 190 0 62 -34 190 -51 190 -5 0 -9 6 -9 13 -1 36 -133 139
-203 158 -54 14 -178 14 -225 -2 -76 -25 -202 -129 -202 -167 0 -6 -4 -12 -10
-14 -14 -5 -42 -115 -51 -208 -11 -113 -49 -189 -130 -264 -93 -86 -123 -98
-259 -104 l-115 -4 -68 35 c-153 81 -227 198 -228 364 -1 113 27 193 92 264
27 30 49 61 49 70 0 25 22 39 61 39 20 0 49 6 64 14 41 21 134 29 200 17 77
-14 134 -43 195 -98 28 -25 52 -44 54 -42 13 18 46 78 46 86 0 12 -86 75 -138
102 -93 48 -199 66 -297 51z"/>
<path d="M7180 2461 c-31 -5 -35 -9 -32 -34 2 -23 -2 -28 -28 -33 -17 -4 -33
-11 -36 -15 -8 -14 -36 -11 -54 6 -26 23 -63 4 -134 -68 -91 -93 -134 -187
-146 -320 -5 -64 -17 -121 -30 -151 -24 -56 -99 -132 -141 -141 -16 -4 -31
-11 -34 -16 -4 -5 -39 -9 -80 -9 -41 0 -76 4 -80 9 -3 5 -18 12 -33 16 -29 6
-112 74 -112 92 0 6 -4 13 -10 15 -15 5 -50 108 -50 148 0 75 48 171 108 218
122 94 272 81 384 -31 56 -57 58 -58 67 -35 25 67 23 81 -16 121 -77 80 -194
114 -323 95 -63 -9 -74 -14 -98 -44 -18 -23 -35 -34 -53 -34 -32 0 -91 -64
-125 -137 -20 -44 -24 -67 -24 -154 0 -91 3 -108 27 -158 38 -77 114 -150 192
-185 54 -24 77 -28 151 -28 103 0 172 25 240 88 90 83 112 136 140 329 15 102
51 177 114 240 51 51 166 115 204 115 15 0 22 7 24 28 3 25 7 27 56 30 52 3
52 3 52 -26 0 -25 5 -30 33 -36 17 -3 56 -16 86 -28 l54 -22 15 22 14 21 31
-29 c18 -17 35 -30 40 -30 13 0 7 -28 -8 -34 -21 -8 -19 -19 10 -61 13 -21 32
-55 42 -77 16 -35 21 -39 45 -34 29 6 34 -2 40 -64 3 -29 0 -35 -22 -40 -21
-5 -26 -13 -32 -55 -3 -28 -11 -66 -17 -85 -6 -19 -11 -36 -11 -37 0 -1 11 -8
25 -15 25 -13 25 -14 7 -44 -39 -69 -41 -71 -52 -51 -16 25 -31 21 -67 -17
-17 -19 -45 -42 -63 -51 -29 -15 -31 -20 -26 -50 8 -39 3 -43 -58 -51 -42 -6
-46 -5 -46 15 0 20 -5 21 -95 21 -88 0 -95 -1 -95 -20 0 -23 -29 -26 -79 -9
-21 8 -30 16 -27 25 3 8 9 20 12 28 3 9 -10 25 -38 44 -24 16 -52 39 -62 51
-18 20 -20 20 -32 3 -11 -15 -6 -23 33 -62 38 -37 43 -47 34 -62 -6 -10 -11
-20 -11 -22 0 -15 146 -76 183 -76 8 0 20 14 26 31 10 29 12 30 63 27 49 -3
53 -5 56 -30 5 -42 38 -38 164 20 39 17 48 38 26 60 -10 10 -7 16 11 29 13 9
31 24 40 35 19 22 29 23 53 1 17 -15 20 -14 43 13 23 26 85 140 85 156 0 3
-11 9 -25 12 -23 6 -25 10 -20 44 13 80 14 82 42 82 l26 0 -6 73 c-4 39 -12
87 -18 105 -10 29 -14 32 -39 27 -25 -6 -31 -1 -54 37 -23 39 -24 45 -11 65 8
12 15 25 15 29 0 12 -105 106 -129 115 -18 7 -28 5 -42 -7 -17 -16 -23 -16
-66 -2 -42 13 -48 19 -51 45 -3 28 -6 31 -55 37 -57 6 -66 6 -117 -3z"/>
<path d="M4122 2330 c-19 -4 -38 -12 -44 -18 -13 -13 -2 -32 18 -32 38 0 1
-23 -81 -52 -50 -16 -94 -34 -100 -38 -5 -5 -57 -20 -115 -35 -58 -14 -130
-33 -160 -40 -35 -9 -63 -24 -78 -41 -21 -24 -26 -25 -48 -14 -20 11 -40 11
-121 -4 -82 -15 -136 -16 -338 -11 -348 8 -386 8 -428 0 -30 -6 -35 -10 -26
-21 6 -8 15 -11 20 -9 4 3 35 -2 68 -12 63 -19 74 -32 71 -85 -2 -36 17 -44
48 -21 35 25 62 35 62 23 0 -6 7 -10 15 -10 8 0 15 5 15 10 0 20 50 9 74 -16
24 -26 46 -26 46 2 0 8 7 14 15 14 8 0 15 -7 15 -15 0 -19 24 -19 40 0 7 9 27
14 50 13 20 0 42 2 49 6 7 5 20 1 30 -8 16 -15 19 -15 31 -1 18 21 40 19 40
-5 0 -24 24 -26 77 -6 68 26 225 45 330 39 54 -2 166 -4 248 -3 83 0 173 1
202 0 32 -1 54 4 60 12 9 14 44 33 80 43 14 4 23 15 25 33 2 23 7 27 29 24 43
-5 55 20 34 73 -9 25 -25 50 -36 55 -10 6 -19 19 -19 30 0 33 -44 89 -87 110
-45 21 -59 23 -111 10z m-622 -320 c0 -5 -2 -10 -4 -10 -3 0 -8 5 -11 10 -3 6
-1 10 4 10 6 0 11 -4 11 -10z"/>
<path d="M3010 1835 c0 -8 7 -15 15 -15 8 0 15 4 15 9 0 5 -7 11 -15 15 -9 3
-15 0 -15 -9z"/>
<path d="M7832 1588 c3 -86 19 -109 28 -41 6 48 35 58 45 15 3 -16 5 -35 3
-42 -2 -7 3 -15 10 -17 10 -4 12 9 10 53 -3 58 -3 59 -35 62 -27 3 -33 7 -33
28 0 15 -6 24 -15 24 -13 0 -15 -14 -13 -82z"/>
<path d="M7730 1649 c0 -9 -7 -22 -15 -29 -11 -9 -13 -16 -5 -24 5 -5 10 -22
10 -36 0 -38 23 -65 46 -56 18 7 18 8 2 17 -22 12 -24 58 -4 73 13 9 11 15 -9
41 -17 21 -25 25 -25 14z"/>
<path d="M5810 1357 l0 -94 71 -7 c41 -4 76 -3 81 2 5 5 8 49 6 98 l-3 89 -77
3 -78 3 0 -94z"/>
<path d="M5660 1270 c0 -77 1 -80 25 -86 41 -10 55 1 55 46 0 33 3 40 20 40
17 0 20 7 20 40 l0 40 -60 0 -60 0 0 -80z"/>
<path d="M6650 1340 c0 -6 -9 -30 -19 -53 -11 -24 -23 -55 -26 -70 -6 -23 -4
-27 13 -27 11 0 22 8 25 20 3 13 14 20 31 20 15 0 31 -8 38 -20 12 -19 38 -28
38 -12 -1 4 -11 39 -24 77 -20 61 -27 70 -50 73 -14 2 -26 -2 -26 -8z m40 -71
c0 -10 -6 -19 -13 -19 -22 0 -27 11 -16 32 12 22 29 15 29 -13z"/>
<path d="M6780 1270 c0 -63 3 -80 14 -80 18 0 30 33 21 59 -12 39 15 30 45
-14 19 -27 39 -45 50 -45 18 0 20 7 20 80 0 64 -3 80 -15 80 -11 0 -15 -12
-15 -50 0 -60 -13 -59 -53 5 -18 28 -36 45 -48 45 -17 0 -19 -8 -19 -80z"/>
<path d="M6970 1270 c0 -63 3 -80 14 -80 11 0 16 15 18 53 l3 52 38 -52 c24
-32 46 -53 58 -53 17 0 19 8 19 80 0 64 -3 80 -15 80 -11 0 -15 -12 -15 -50 0
-27 -3 -50 -8 -50 -4 0 -22 23 -40 50 -21 32 -40 50 -52 50 -18 0 -20 -7 -20
-80z"/>
<path d="M7160 1270 c0 -64 3 -80 15 -80 12 0 15 16 15 80 0 64 -3 80 -15 80
-12 0 -15 -16 -15 -80z"/>
<path d="M7220 1343 c0 -5 12 -41 26 -80 19 -53 32 -73 44 -73 23 0 39 20 46
61 4 19 13 47 21 62 8 16 12 31 9 34 -11 11 -36 -7 -36 -27 0 -11 -4 -20 -9
-20 -5 0 -12 -15 -16 -32 l-7 -33 -19 40 c-10 22 -19 48 -19 58 0 16 -40 26
-40 10z"/>
<path d="M7399 1320 c-1 -16 -3 -45 -4 -62 -4 -60 2 -68 52 -68 50 0 57 23 9
28 -32 4 -33 37 -2 37 11 0 21 6 23 13 3 7 -5 12 -21 12 -37 0 -36 37 1 42 48
6 39 28 -11 28 -44 0 -46 -1 -47 -30z"/>
<path d="M7520 1270 c0 -63 3 -80 14 -80 8 0 16 12 18 27 4 36 25 41 39 9 11
-24 44 -44 55 -33 3 2 -5 21 -17 41 -11 20 -16 36 -11 36 17 0 24 37 12 60 -9
16 -21 20 -60 20 l-50 0 0 -80z m78 33 c5 -17 -26 -29 -40 -15 -6 6 -7 15 -3
22 9 14 37 9 43 -7z"/>
<path d="M7682 1338 c-22 -22 -13 -52 24 -76 42 -27 40 -48 -5 -44 -22 1 -31
-2 -31 -13 0 -21 83 -21 100 0 16 20 5 62 -19 70 -11 3 -25 13 -32 21 -10 13
-10 17 2 25 8 4 22 6 32 3 11 -3 17 0 17 10 0 20 -70 22 -88 4z"/>
<path d="M7844 1323 c-4 -15 -15 -46 -25 -68 -10 -22 -19 -46 -19 -52 0 -21
37 -15 43 7 3 13 14 20 31 20 15 0 31 -8 38 -20 7 -11 18 -20 25 -20 15 0 17
42 3 56 -6 6 -16 30 -23 55 -11 36 -17 45 -40 47 -22 3 -28 -2 -33 -25z m46
-55 c0 -10 -6 -18 -13 -18 -22 0 -25 9 -13 35 11 25 26 16 26 -17z"/>
<path d="M7980 1270 c0 -73 2 -80 20 -80 16 0 20 7 20 30 0 27 2 30 19 20 11
-5 23 -19 26 -30 3 -11 15 -20 25 -20 22 0 18 22 -9 53 -14 17 -14 19 2 28 23
13 22 56 -2 69 -11 5 -38 10 -60 10 l-41 0 0 -80z m80 30 c0 -13 -7 -20 -20
-20 -13 0 -20 7 -20 20 0 13 7 20 20 20 13 0 20 -7 20 -20z"/>
<path d="M8135 1313 c9 -21 20 -42 26 -47 5 -6 9 -25 9 -43 0 -23 5 -33 15
-33 10 0 15 10 15 28 0 15 12 45 25 67 14 22 25 46 25 53 0 22 -30 13 -42 -13
-14 -31 -36 -32 -40 -2 -2 14 -11 23 -26 25 -23 3 -23 3 -7 -35z"/>
<path d="M5760 1121 l0 -118 31 -7 c17 -3 76 -6 130 -6 l99 0 0 119 0 118 -67
6 c-38 4 -96 7 -130 7 l-63 0 0 -119z"/>
<path d="M5640 1086 l0 -76 50 0 51 0 -3 73 -3 72 -47 3 -48 3 0 -75z"/>
<path d="M5536 1104 c-3 -9 -6 -49 -6 -90 0 -72 1 -74 25 -74 22 0 25 4 25 35
0 28 4 35 20 35 17 0 20 7 20 43 0 24 -5 48 -12 55 -17 17 -65 15 -72 -4z"/>
<path d="M5600 494 l0 -494 65 0 65 0 0 360 0 360 60 0 c57 0 60 1 60 25 0 24
2 25 65 25 l65 0 0 30 0 30 69 0 70 0 3 33 3 32 93 -3 92 -4 0 30 c0 30 -1 30
-62 35 -63 5 -352 22 -545 31 l-103 5 0 -495z"/>
<path d="M7497 924 c-4 -4 -7 -214 -7 -466 l0 -458 395 0 395 0 0 439 0 439
-27 6 c-46 8 -156 15 -408 26 -132 5 -263 12 -290 15 -28 3 -54 3 -58 -1z"/>
<path d="M5490 461 l0 -461 45 0 45 0 -2 457 -3 458 -42 3 -43 3 0 -460z"/>
<path d="M7266 862 c-3 -3 -6 -198 -6 -434 l0 -429 98 3 97 3 0 418 c1 366 -1
420 -15 426 -19 10 -166 21 -174 13z"/>
<path d="M5397 853 c-4 -3 -7 -197 -7 -430 l0 -423 40 0 40 0 2 421 c2 256 -1
424 -6 430 -11 10 -59 12 -69 2z"/>
<path d="M6157 853 c-4 -3 -7 -197 -7 -430 l0 -423 65 0 65 0 0 320 0 320 79
0 c75 0 80 1 83 23 3 21 7 22 91 20 86 -2 87 -2 87 22 0 25 0 25 100 25 l100
0 0 50 0 50 -56 0 c-75 0 -487 19 -550 25 -28 3 -54 2 -57 -2z"/>
<path d="M5300 400 l0 -400 35 0 35 0 0 400 0 400 -35 0 -35 0 0 -400z"/>
<path d="M6000 400 l0 -400 60 0 60 0 -2 398 -3 397 -57 3 -58 3 0 -401z"/>
<path d="M7050 400 l0 -400 90 0 90 0 0 400 0 400 -90 0 -90 0 0 -400z"/>
<path d="M5880 376 l0 -376 50 0 50 0 0 364 c0 201 -3 367 -7 369 -5 3 -27 8
-50 12 l-43 7 0 -376z"/>
<path d="M6847 743 c-4 -3 -7 -172 -7 -375 l0 -368 85 0 85 0 0 369 0 368 -37
7 c-50 8 -118 8 -126 -1z"/>
<path d="M5760 351 l0 -351 45 0 45 0 -2 348 -3 347 -42 3 -43 3 0 -350z"/>
<path d="M6657 693 c-4 -3 -7 -161 -7 -350 l0 -343 80 0 80 0 0 344 0 344 -31
6 c-41 8 -114 8 -122 -1z"/>
<path d="M6480 325 l0 -325 70 0 70 0 0 325 0 325 -70 0 -70 0 0 -325z"/>
<path d="M6317 604 c-4 -4 -7 -142 -7 -306 l0 -298 65 0 65 0 -2 303 -3 302
-55 3 c-31 2 -59 0 -63 -4z"/>
<path d="M5224 466 c-3 -8 -3 -81 0 -163 2 -81 5 -183 5 -225 1 -76 2 -78 26
-78 l25 0 0 240 0 240 -25 0 c-14 0 -28 -6 -31 -14z"/>
<path d="M5140 145 l0 -145 30 0 30 0 0 145 0 145 -30 0 -30 0 0 -145z"/>
<path d="M5075 268 c-7 -21 -7 -37 -6 -155 l1 -113 25 0 26 0 -3 137 c-3 122
-5 138 -21 141 -9 2 -19 -2 -22 -10z"/>
<path d="M4997 243 c-4 -3 -7 -60 -7 -125 l0 -118 30 0 30 0 0 125 c0 124 0
125 -23 125 -13 0 -27 -3 -30 -7z"/>
<path d="M4937 234 c-4 -4 -7 -58 -7 -121 l0 -113 25 0 26 0 -3 117 c-2 97 -6
118 -18 121 -9 1 -19 0 -23 -4z"/>
<path d="M4877 213 c-4 -3 -7 -53 -7 -110 0 -96 1 -103 20 -103 19 0 20 7 20
110 0 85 -3 110 -13 110 -8 0 -17 -3 -20 -7z"/>
</g>
</svg>
